<svg width="32" height="20" viewBox="0 0 32 20" fill="none" xmlns="http://www.w3.org/2000/svg">
<path d="M12.3307 14.1902C12.2611 14.1404 11.6346 13.683 11.7142 13.0267C11.7539 12.7284 11.5551 12.4499 11.2567 12.4102C10.9584 12.3604 10.68 12.5693 10.6303 12.8676C10.6303 12.8974 10.5706 13.2753 10.7098 13.7526C10.0336 14.568 9.03921 15.0354 7.94536 15.0354C6.84157 15.0354 5.81733 14.5581 5.15108 13.7128C4.96214 13.4742 4.6141 13.4344 4.38538 13.6233C4.14673 13.8123 4.10695 14.1603 4.29589 14.389C5.18091 15.4928 6.50347 16.1193 7.94536 16.1193C9.22815 16.1193 10.4115 15.6221 11.2866 14.7371C11.4059 14.8564 11.5451 14.9757 11.7042 15.0951C11.8037 15.1647 11.9031 15.1945 12.0125 15.1945C12.1815 15.1945 12.3605 15.1149 12.46 14.9558C12.639 14.6973 12.5793 14.3592 12.3307 14.1902Z" fill="white"/>
<path d="M10.8192 10.0634C10.8192 10.0534 10.8192 10.0335 10.8192 10.0236C10.8192 9.56617 10.4512 9.19824 9.99381 9.19824C9.53639 9.19824 9.16846 9.56617 9.16846 10.0236C9.16846 10.0335 9.16846 10.0534 9.16846 10.0634H10.8192Z" fill="white"/>
<path d="M5.69792 10.849C6.15534 10.849 6.52327 10.481 6.52327 10.0236C6.52327 9.56617 6.15534 9.19824 5.69792 9.19824C5.24049 9.19824 4.87256 9.56617 4.87256 10.0236C4.87256 10.481 5.24049 10.849 5.69792 10.849Z" fill="white"/>
<path d="M16.4972 10.7595C16.4972 7.66693 14.7868 4.97209 12.261 3.56003C12.0721 3.08272 11.8135 2.18775 12.3108 1.70049C12.6687 1.34251 13.0665 1.59111 13.1759 1.67066C13.4145 1.84966 13.5935 2.16787 13.4344 2.45624C13.2853 2.72473 13.3847 3.05289 13.6433 3.20205C13.9117 3.35121 14.2399 3.25177 14.3891 2.99322C14.7868 2.26731 14.5581 1.35245 13.8322 0.805529C13.0963 0.248661 12.1715 0.298381 11.5351 0.934801C10.9385 1.53145 10.8689 2.31703 10.9683 2.98328C10.1131 2.68496 9.19826 2.51591 8.24363 2.51591C3.69919 2.51591 0 6.2151 0 10.7595C0 15.304 3.69919 19.0032 8.24363 19.0032C12.7881 19.0032 16.4873 15.3139 16.4972 10.7695C16.4972 10.7695 16.4972 10.7695 16.4972 10.7595ZM16.348 10.3817C16.2983 10.3319 16.2387 10.2822 16.1691 10.2524C16.2387 10.2922 16.2983 10.3319 16.348 10.3817ZM15.3437 9.83474C12.7582 8.30335 12.2511 5.82728 12.1616 4.77321C13.862 5.88694 15.0653 7.71665 15.3437 9.83474ZM8.24363 3.60975C9.20821 3.60975 10.1231 3.79869 10.9683 4.14673C8.711 6.68247 3.59975 7.46805 1.79988 7.66693C2.95339 5.27041 5.40957 3.60975 8.24363 3.60975ZM8.24363 17.9093C4.29584 17.9093 1.09385 14.6974 1.09385 10.7595C1.09385 10.0833 1.19329 9.42703 1.36234 8.8105C1.86948 8.77072 3.63953 8.60167 5.66812 8.07464C8.05469 7.45811 9.89435 6.59297 11.1473 5.49913C11.2268 5.92672 11.3462 6.42392 11.555 6.9609C12.0423 8.25363 13.1063 9.99384 15.3835 11.1076C15.2144 14.8863 12.0721 17.9093 8.24363 17.9093ZM16.3083 11.1772C16.3679 11.1275 16.4177 11.0579 16.4475 10.9882C16.4177 11.0579 16.3679 11.1175 16.3083 11.1772Z" fill="white"/>
<path d="M32.0001 10.7496C32.0001 10.7496 32.0001 10.7397 32.0001 10.7496C31.9901 8.13432 30.767 5.79746 28.8577 4.2959C29.2157 3.87825 29.5041 3.23189 29.5638 2.24743C29.6135 1.46184 29.4544 0.875144 29.0864 0.487325C28.8776 0.268556 28.5097 0.0100098 27.8832 0.0100098C27.0777 0.0100098 26.1728 0.447549 25.5563 0.805535C24.9398 1.17347 24.3034 1.64084 23.7365 2.15793C23.1697 1.64084 22.5433 1.17347 21.9168 0.805535C21.3002 0.437605 20.3953 0.0100098 19.5899 0.0100098C18.9634 0.0100098 18.5855 0.268556 18.3866 0.487325C18.0187 0.875144 17.8596 1.47179 17.9093 2.24743C17.969 3.23189 18.2574 3.87825 18.6153 4.2959C16.7061 5.8074 15.473 8.13432 15.473 10.7496V10.7596C15.473 15.304 19.1722 19.0032 23.7266 19.0032C28.271 19.0032 31.9702 15.304 31.9702 10.7596C32.0001 10.7596 32.0001 10.7496 32.0001 10.7496ZM23.7564 17.9093C19.9081 17.9093 16.7658 14.8565 16.6066 11.0479C17.1635 10.68 18.5457 9.74526 19.9976 8.57185C21.8273 7.09019 23.0802 5.76763 23.7465 4.64395C24.4127 5.77757 25.6657 7.09019 27.4954 8.57185C28.9472 9.74526 30.3295 10.68 30.8863 11.0479C30.7471 14.8565 27.6048 17.9093 23.7564 17.9093ZM24.4625 3.6396C27.7241 3.95781 30.3394 6.47366 30.8267 9.68559C28.7384 8.25364 25.2878 5.57869 24.4625 3.6396ZM23.0504 3.6396C22.225 5.57869 18.7745 8.2437 16.6862 9.68559C17.1635 6.4836 19.7887 3.96775 23.0504 3.6396ZM27.8932 1.09391C28.1716 1.09391 28.271 1.19335 28.3009 1.22319C28.45 1.38229 28.5097 1.71045 28.4799 2.16787C28.46 2.47614 28.4103 3.24183 27.9429 3.65948C27.028 3.1225 26.0038 2.74463 24.9099 2.59547C26.0038 1.7005 27.1871 1.09391 27.8932 1.09391ZM19.033 2.16787C19.0032 1.71045 19.0628 1.38229 19.212 1.22319C19.2418 1.19335 19.3413 1.09391 19.6197 1.09391C20.3357 1.09391 21.5091 1.7005 22.6029 2.59547C21.5091 2.75457 20.4749 3.1225 19.56 3.65948C19.3114 3.42083 19.0827 2.98329 19.033 2.16787Z" fill="white"/>
<path d="M25.9043 10.849C26.3618 10.849 26.7297 10.481 26.7297 10.0236C26.7297 9.56617 26.3618 9.19824 25.9043 9.19824C25.4469 9.19824 25.079 9.56617 25.079 10.0236C25.079 10.481 25.4569 10.849 25.9043 10.849Z" fill="white"/>
<path d="M21.6086 10.849C22.066 10.849 22.4339 10.481 22.4339 10.0236C22.4339 9.56617 22.066 9.19824 21.6086 9.19824C21.1511 9.19824 20.7832 9.56617 20.7832 10.0236C20.7832 10.481 21.1511 10.849 21.6086 10.849Z" fill="white"/>
<path d="M27.3264 13.6134C27.0877 13.4245 26.7496 13.4642 26.5607 13.7029C25.8845 14.5481 24.8702 15.0255 23.7664 15.0255C22.6626 15.0255 21.6384 14.5481 20.9721 13.7029C20.7832 13.4642 20.4351 13.4245 20.2064 13.6134C19.9678 13.8023 19.928 14.1504 20.1169 14.3791C21.002 15.4829 22.3245 16.1094 23.7664 16.1094C25.2083 16.1094 26.5408 15.4729 27.4159 14.3791C27.5949 14.1404 27.5551 13.8023 27.3264 13.6134Z" fill="white"/>
</svg>
