<svg width="57" height="56" viewBox="0 0 57 56" fill="none" xmlns="http://www.w3.org/2000/svg">
<path d="M6.79727 13.4398C6.39082 12.6118 5.96931 11.7839 5.56286 10.971C3.93706 7.6742 5.39727 4.13657 8.87469 2.90216C9.38652 2.72151 9.82308 2.31506 10.2747 1.98388C11.4338 1.11076 12.6983 0.493558 14.1134 0.207536C16.0102 -0.198916 17.8467 -0.00321655 19.6231 0.749472C20.5564 1.15592 21.4747 1.56237 22.393 1.99893C25.3887 3.45915 26.9543 6.54517 26.3973 9.82689C26.3822 9.91721 26.3672 10.0075 26.3672 10.0226C27.6919 10.0226 29.0166 10.0226 30.251 10.0226C30.251 9.08926 30.1306 8.12582 30.2811 7.20754C30.5973 5.29571 31.7715 3.98603 33.4876 3.14302C34.1951 2.79678 34.9177 2.40539 35.55 1.93872C37.251 0.689256 39.1328 -0.00321658 41.2553 0.0118372C42.0231 0.0118372 42.836 0.0569985 43.5285 0.327966C45.2145 0.975278 46.9607 1.60754 48.4962 2.54087C51.4016 4.28711 52.5156 8.00539 51.2811 11.1968C50.9951 11.9495 50.6639 12.6871 50.3177 13.485C51.251 13.5903 52.0188 13.9667 52.5306 14.7495C52.8919 15.3065 52.9973 15.9237 52.9371 16.586C52.7865 17.9258 51.7779 18.7688 50.0768 18.9645C49.9414 19.4161 49.8209 19.8828 49.6403 20.3344C48.9328 22.1559 47.7736 23.6161 46.1177 24.6699C45.8317 24.8505 45.6962 25.0312 45.7113 25.3774C45.7564 26.0097 45.5156 26.7925 45.8166 27.2441C46.1027 27.6957 46.9005 27.8161 47.4876 28.057C49.4596 28.885 51.4317 29.7129 53.4037 30.5258C55.5715 31.429 56.55 32.8591 56.55 35.2226C56.55 38.971 56.55 42.7344 56.55 46.4828C56.55 47.4764 56.279 47.7624 55.2854 47.7624C53.3285 47.7624 51.3865 47.7624 49.3392 47.7624C49.3392 47.9731 49.3392 48.1688 49.3392 48.3645C49.3392 50.4419 49.3392 52.5344 49.3392 54.6118C49.3392 55.5753 49.0532 55.8613 48.1199 55.8613C35.1134 55.8613 22.0919 55.8613 9.08544 55.8613C8.16716 55.8613 7.88114 55.5753 7.88114 54.6419C7.88114 52.3688 7.88114 50.0957 7.88114 47.7473C7.65534 47.7473 7.45964 47.7473 7.26394 47.7473C5.44243 47.7473 3.62093 47.7473 1.79942 47.7473C0.986518 47.7473 0.670389 47.4312 0.670389 46.6183C0.670389 42.6893 0.655336 38.7753 0.685443 34.8462C0.700497 32.8441 1.69405 31.429 3.5306 30.6312C5.95426 29.5925 8.40802 28.5989 10.8467 27.5753C11.0575 27.485 11.2532 27.3946 11.494 27.2893C11.494 26.5817 11.5091 25.8592 11.479 25.1516C11.479 25.0161 11.3736 24.8204 11.2532 24.7602C9.05534 23.4054 7.7005 21.4484 7.12845 18.9645C5.15641 18.6183 4.25319 17.7903 4.19297 16.285C4.13276 14.8398 5.02093 13.8764 6.79727 13.4398ZM54.7134 45.9258C54.7134 42.3129 54.7134 38.7602 54.7134 35.2226C54.7134 33.6118 54.1865 32.814 52.6962 32.1968C50.0467 31.0979 47.3973 29.9839 44.7629 28.885C43.9951 28.5688 43.9048 28.4183 43.9048 27.5753C43.9048 26.6419 43.9349 25.6936 43.8897 24.7602C43.8596 24.1129 44.1306 23.7516 44.6575 23.4054C45.4102 22.9086 46.1478 22.3215 46.765 21.6591C47.6532 20.7108 48.1199 19.5065 48.3156 18.2118C48.451 17.3237 48.707 17.1129 49.6252 17.1129C49.836 17.1129 50.0467 17.128 50.2424 17.1129C50.7693 17.0678 51.1306 16.6764 51.1156 16.1946C51.1005 15.728 50.7543 15.3667 50.2424 15.3366C49.9564 15.3215 49.6854 15.3366 49.3994 15.3215C48.7672 15.2914 48.451 14.9753 48.4059 14.343C48.3758 13.7108 48.451 13.1237 48.7371 12.5516C49.0682 11.9043 49.3392 11.2269 49.5951 10.5344C50.5887 7.90001 49.4747 5.00969 46.9607 3.73012C45.9822 3.23334 44.9586 2.78173 43.9349 2.36022C42.8209 1.89356 41.6618 1.74302 40.4575 1.8785C38.9822 2.0441 37.6725 2.60108 36.5134 3.51936C35.8209 4.0613 35.1134 4.54302 34.2553 4.85915C32.9306 5.34087 32.208 6.39463 31.9672 7.76453C31.7865 8.81829 32.0725 9.81184 32.6596 10.6548C32.9306 11.0462 33.4876 11.2269 33.9392 11.4678C34.3005 11.6634 34.6919 11.7989 35.0682 11.9946C36.8596 12.8979 38.094 14.2979 38.7414 16.2097C39.3586 18.0161 39.2381 19.7925 38.4854 21.5237C38.2145 22.1409 37.9586 22.7731 37.6575 23.4505C38.0037 23.4505 38.2446 23.4505 38.4854 23.4505C39.9908 23.4807 41.165 24.6699 41.1801 26.1452C41.1801 27.6204 40.0059 28.8247 38.5156 28.8548C38.1392 28.8699 37.7779 28.8548 37.4166 28.8548C36.8145 31.3839 35.4747 33.3258 33.3371 34.7108C33.2166 34.786 33.0962 34.9667 33.0962 35.1022C33.0661 35.7946 33.0811 36.4871 33.0811 37.1796C33.2618 37.2398 33.4123 37.285 33.5478 37.3301C37.7026 38.4893 41.8575 39.6333 45.9973 40.8075C47.879 41.3495 48.9478 42.6592 49.2489 44.586C49.3242 45.0376 49.2639 45.5043 49.2639 45.986C51.1457 45.9258 52.9069 45.9258 54.7134 45.9258ZM19.4274 23.3753C18.9457 22.4118 18.479 21.5237 18.0575 20.6054C16.7177 17.7452 17.9371 14.3581 20.7973 13.1237C21.6252 12.7624 22.3478 12.2957 23.0403 11.7839C23.2962 11.5882 23.5822 11.4376 23.8231 11.2419C23.9887 11.1065 24.1543 10.9409 24.2446 10.7452C25.4037 8.0656 24.3048 5.00969 21.7005 3.68496C20.707 3.18818 19.6983 2.73657 18.6747 2.31506C17.2897 1.74302 15.8446 1.6527 14.3693 1.96883C12.879 2.28496 11.6897 3.11291 10.5306 4.01614C10.2446 4.24194 9.9134 4.46775 9.56716 4.57313C7.02308 5.38603 5.98437 7.77958 7.15856 10.1731C7.61017 11.0764 8.122 11.9645 8.48329 12.8979C8.67899 13.4097 8.69405 14.0269 8.64888 14.5989C8.61878 15.0204 8.25749 15.2613 7.80587 15.2764C7.48974 15.2914 7.17361 15.2613 6.84243 15.2914C6.34566 15.3366 5.99942 15.6979 5.99942 16.1796C5.99942 16.6462 6.3306 17.0376 6.82738 17.0828C7.08329 17.1129 7.35426 17.0979 7.61017 17.0979C8.34781 17.1129 8.64888 17.3237 8.75426 18.0462C9.1306 20.5 10.4102 22.3065 12.5779 23.4957C12.9994 23.7215 13.1951 24.0527 13.1951 24.5344C13.1801 25.528 13.1951 26.5215 13.1951 27.5151C13.1951 28.4032 13.0897 28.5538 12.2618 28.9C9.61233 29.9989 6.96286 31.0979 4.3134 32.1968C2.92845 32.7688 2.37146 33.6118 2.37146 35.1022C2.37146 38.5043 2.37146 41.9065 2.37146 45.2936C2.37146 45.4893 2.37146 45.685 2.37146 45.8807C4.20802 45.8807 5.96931 45.8807 7.77577 45.8807C7.77577 45.6549 7.77577 45.4441 7.77577 45.2484C7.79082 42.9452 9.05534 41.2592 11.2532 40.6419C14.0381 39.8742 16.8231 39.1065 19.593 38.3387C21.0532 37.9323 22.5134 37.5258 23.9887 37.1043C23.9887 36.4721 23.9736 35.8699 24.0037 35.2678C24.0188 34.9065 23.9134 34.7108 23.5973 34.5C21.6854 33.2505 20.4209 31.5194 19.8037 29.3065C19.7586 29.1258 19.6983 28.9602 19.6381 28.8097C16.9736 28.614 15.8897 27.8312 15.8747 26.1C15.95 24.4592 17.0489 23.5559 19.4274 23.3753ZM15.0768 54.0398C15.0768 51.6161 15.0768 49.2527 15.0768 46.8893C15.694 46.8893 16.251 46.8893 16.8682 46.8893C16.8682 49.2979 16.8682 51.6613 16.8682 54.0247C24.7113 54.0247 32.494 54.0247 40.322 54.0247C40.322 51.6161 40.322 49.2678 40.322 46.8893C40.9392 46.8893 41.4962 46.8893 42.1285 46.8893C42.1285 49.2979 42.1285 51.6764 42.1285 54.0247C43.95 54.0247 45.7113 54.0247 47.4725 54.0247C47.4876 53.9344 47.5026 53.8893 47.5026 53.829C47.5026 50.8785 47.5177 47.928 47.5026 44.9774C47.4876 43.7581 46.6897 42.7946 45.4704 42.4484C41.2854 41.2742 37.0854 40.1151 32.9005 38.9409C32.5543 38.8506 32.3586 38.9108 32.1177 39.1667C31.2596 40.0549 30.3715 40.928 29.4983 41.8011C28.7607 42.5237 28.3994 42.5237 27.6618 41.786C26.8037 40.928 25.9306 40.0699 25.0725 39.1968C24.8166 38.9409 24.6059 38.8656 24.2446 38.971C20.1349 40.1301 16.0102 41.2591 11.9005 42.4183C10.35 42.8548 9.65749 43.7731 9.65749 45.3538C9.65749 48.0634 9.65749 50.7581 9.65749 53.4678C9.65749 53.6484 9.65749 53.829 9.65749 54.0398C11.4639 54.0398 13.2252 54.0398 15.0768 54.0398ZM34.5865 21.2075C30.5672 24.1581 26.5779 24.143 22.6188 21.2376C21.7457 22.5774 21.1435 23.9473 21.3543 25.5731C21.4145 26.085 21.3543 26.6269 21.3693 27.1538C21.4295 30.7667 24.1693 33.7473 27.8575 34.1989C31.2596 34.6204 34.7822 32.2721 35.5048 28.8398C35.851 27.1839 35.7005 25.4075 35.7758 23.6914C35.7758 23.6011 35.7306 23.5108 35.6854 23.4355C35.3242 22.7129 34.9779 21.9903 34.5865 21.2075ZM26.9392 16.6914C25.1026 13.8613 22.1973 14.0269 20.7521 15.2462C18.9758 16.7516 18.8102 18.9495 20.5113 21.3129C20.8123 20.7108 21.0983 20.1237 21.3994 19.5516C21.7607 18.8591 22.2876 18.7387 22.9199 19.1903C23.4467 19.5667 23.9586 19.9882 24.5005 20.3645C26.3973 21.614 28.4295 21.9452 30.6274 21.328C32.0123 20.9366 33.0811 20.0484 34.1951 19.2204C34.8725 18.7237 35.3994 18.8441 35.7908 19.5968C36.0618 20.1237 36.3177 20.6505 36.6037 21.2226C38.1242 18.4527 37.1457 15.0807 34.4209 13.6656C33.5629 13.214 32.6596 12.8376 31.7715 12.4312C30.3865 11.7989 28.9414 11.5882 27.436 11.829C26.4274 11.9796 25.3285 12.4161 24.9069 12.8527C26.8188 13.7258 27.8424 14.5839 28.3543 15.7581C27.9026 16.0441 27.436 16.3602 26.9392 16.6914ZM31.2747 35.614C29.4381 36.171 27.6768 36.1409 25.8704 35.629C25.8704 36.1409 25.8553 36.5774 25.8704 37.014C25.8854 37.2097 25.8854 37.4656 26.0059 37.586C26.8338 38.4592 27.6768 39.3022 28.565 40.1903C29.4532 39.2871 30.2962 38.4441 31.1392 37.586C31.2145 37.5108 31.2596 37.3602 31.2596 37.2398C31.2897 36.728 31.2747 36.2312 31.2747 35.614ZM19.5328 27.0032C19.5328 26.4011 19.5328 25.829 19.5328 25.2721C18.3285 25.1366 17.7865 25.4075 17.7715 26.1151C17.7564 26.8075 18.2532 27.0635 19.5328 27.0032ZM37.6424 25.257C37.6424 25.8592 37.6424 26.4312 37.6424 26.9882C38.9069 27.0484 39.4037 26.7774 39.3887 26.085C39.3736 25.3925 38.8166 25.1215 37.6424 25.257Z" fill="#26A65B"/>
</svg>
