<svg width="56" height="56" viewBox="0 0 56 56" fill="none" xmlns="http://www.w3.org/2000/svg">
<g clip-path="url(#clip0_2_216)">
<path d="M3.06275 55.9125C2.28983 55.7083 1.5315 55.5187 0.75858 55.3C0.350247 55.1833 0.0294141 54.95 0.0148308 54.4687C0.000247477 53.9875 0.321081 53.7687 0.714831 53.5937C2.4065 52.85 3.67525 51.6542 4.56483 50.0208C4.73983 49.6854 4.73983 49.4667 4.47733 49.1604C-4.63725 38.4271 0.904413 21.7729 14.6711 18.5646C25.2877 16.0854 35.919 23.2604 37.5815 34.0521C39.1273 44.0854 32.5648 53.5062 22.619 55.5187C21.8607 55.6792 21.0877 55.7667 20.3148 55.8833C19.3669 55.8833 18.419 55.8833 17.4711 55.8833C17.4273 55.8542 17.3836 55.825 17.3252 55.8104C14.8898 55.6062 12.5857 54.95 10.3836 53.8708C10.2377 53.7979 9.98983 53.9 9.81483 53.9729C8.75024 54.4833 7.71483 55.0375 6.65025 55.5042C6.18358 55.7083 5.644 55.7521 5.13358 55.8687C4.43358 55.9125 3.74816 55.9125 3.06275 55.9125ZM3.03358 54.1771C3.33983 54.2208 3.50025 54.25 3.66066 54.25C5.74608 54.3375 7.59816 53.7104 9.21691 52.3833C9.87316 51.8292 10.0044 51.8146 10.7627 52.2229C13.9711 53.9146 17.3836 54.5562 21.0002 54.1333C30.5523 53.0104 37.3773 44.0708 36.0065 34.5333C34.5336 24.3979 24.5732 17.7188 14.6565 20.2563C2.144 23.45 -2.581 38.7917 5.994 48.4312C6.519 49.0146 6.694 49.5396 6.27108 50.225C6.19816 50.3417 6.15441 50.4875 6.0815 50.6187C5.39608 52.0187 4.40441 53.1562 3.03358 54.1771Z" fill="#26A65B"/>
<path d="M55.8987 36.6917C55.432 37.2751 54.732 37.3917 54.0757 37.5376C51.2028 38.1792 48.5487 37.6834 46.157 35.948C45.8362 35.7146 45.6174 35.773 45.282 35.8896C43.8091 36.4292 42.307 36.9251 40.8049 37.4355C40.6736 37.4792 40.5132 37.4938 40.382 37.5084C39.9153 37.5521 39.5362 37.2896 39.4632 36.8376C39.3903 36.3709 39.6091 36.0501 40.0466 35.9188C40.557 35.773 41.0966 35.7292 41.5778 35.5396C42.8028 35.0876 44.0132 34.6063 45.2091 34.0667C45.7632 33.8042 46.1716 33.8334 46.6382 34.2417C48.3299 35.7146 50.3132 36.3126 52.5445 36.1376C52.6028 36.1376 52.6757 36.123 52.8362 36.0938C52.5299 35.8313 52.282 35.6271 52.0487 35.4084C50.9403 34.4313 50.1237 33.2501 49.5257 31.8938C49.2924 31.3396 49.3799 30.9459 49.7737 30.523C52.8362 27.1105 54.3382 23.1 54.2653 18.5063C54.1487 10.4417 48.1403 3.38337 40.207 1.93962C31.3257 0.320869 22.8966 5.54171 20.4028 14.1896C20.2716 14.6417 20.1841 15.1084 20.082 15.5605C19.9361 16.2021 19.5861 16.5084 19.1049 16.4355C18.5799 16.348 18.332 15.925 18.4778 15.2542C19.6445 9.63962 22.6778 5.29379 27.6799 2.4792C38.1799 -3.44163 51.1882 1.6042 54.9799 13.0521C55.4028 14.3355 55.5487 15.7063 55.8257 17.0334C55.8549 17.2084 55.8987 17.3834 55.9278 17.5584C55.9278 18.4625 55.9278 19.3813 55.9278 20.2855C55.8987 20.3875 55.8549 20.4896 55.8403 20.5917C55.4757 24.573 53.9882 28.0876 51.3924 31.1355C51.1737 31.398 51.2028 31.5876 51.3487 31.8501C52.1945 33.4396 53.4341 34.6209 55.0528 35.4084C55.3737 35.5688 55.6362 35.8021 55.9424 35.9917C55.8987 36.2542 55.8987 36.473 55.8987 36.6917Z" fill="#26A65B"/>
<path d="M33.7165 18.1709C34.154 18.1709 34.504 18.5209 34.5186 18.9584C34.5332 19.4396 34.1832 19.7896 33.7165 19.7896C33.279 19.7896 32.9144 19.4542 32.8998 19.0167C32.8852 18.5646 33.2644 18.1709 33.7165 18.1709Z" fill="#26A65B"/>
<path d="M36.969 19.7896C36.5315 19.7896 36.1815 19.4396 36.1669 19.0021C36.1669 18.5501 36.5461 18.1709 36.9982 18.1709C37.4503 18.1855 37.8003 18.5646 37.7857 19.0313C37.7711 19.4688 37.4211 19.7896 36.969 19.7896Z" fill="#26A65B"/>
<path d="M40.3231 18.171C40.7752 18.2001 41.1106 18.5939 41.0669 19.0605C41.0231 19.498 40.6731 19.8043 40.2211 19.7751C39.769 19.746 39.419 19.3376 39.4627 18.9001C39.5065 18.4772 39.9002 18.1418 40.3231 18.171Z" fill="#26A65B"/>
<path d="M16.0123 36.9835C16.0123 35.9481 15.9978 34.9126 16.0123 33.8772C16.0123 33.1918 16.2894 32.9147 16.9748 32.9001C17.5582 32.8856 18.1415 32.871 18.7248 32.9001C20.4748 32.9731 21.4957 34.5481 20.8394 36.1668C20.7227 36.4439 20.7957 36.5751 20.9707 36.7793C21.6852 37.6106 21.8602 38.5585 21.4082 39.5647C20.9707 40.5418 20.1686 41.0522 19.0894 41.0814C18.3603 41.096 17.6311 41.096 16.9165 41.0814C16.3332 41.0668 16.0561 40.7897 16.0415 40.2064C16.0123 39.1272 16.0123 38.0626 16.0123 36.9835ZM17.6748 39.4335C18.1853 39.4335 18.6519 39.4481 19.1186 39.4335C19.629 39.4043 19.9644 39.0397 19.979 38.5585C19.9936 38.0481 19.6728 37.6251 19.1478 37.5814C18.6665 37.5376 18.1707 37.5668 17.6603 37.5668C17.6748 38.1939 17.6748 38.7772 17.6748 39.4335ZM17.6894 35.9189C18.0686 35.9189 18.4186 35.9335 18.754 35.9189C19.1478 35.8897 19.3957 35.6418 19.4103 35.2481C19.4248 34.8543 19.1769 34.5918 18.7832 34.5626C18.4332 34.5189 18.0686 34.5481 17.6894 34.5481C17.6894 35.0147 17.6894 35.4231 17.6894 35.9189Z" fill="#26A65B"/>
<path d="M14.4672 40.4251C14.3068 40.6001 14.1318 40.9501 13.8839 41.0085C13.6068 41.0668 13.2714 40.8626 12.9651 40.7605C12.9068 40.7314 12.8484 40.6147 12.8339 40.5272C12.688 39.5355 12.0318 39.3751 11.2005 39.4918C11.0693 39.5064 10.938 39.5064 10.8214 39.4918C9.96094 39.3459 9.39219 39.5793 9.17344 40.5272C9.05678 41.023 8.56094 41.198 8.12344 41.0376C7.70053 40.8918 7.48178 40.4251 7.67136 39.9585C8.47344 37.8147 9.30469 35.6855 10.1214 33.5418C10.2818 33.148 10.588 32.9293 10.9964 32.9147C11.4339 32.9001 11.7547 33.1335 11.9151 33.5418C12.7318 35.6564 13.5339 37.7855 14.3359 39.9001C14.3943 40.0314 14.4089 40.1626 14.4672 40.4251ZM11.813 37.8293C11.5651 37.1585 11.3172 36.546 11.0255 35.7876C10.7339 36.5605 10.4859 37.1876 10.238 37.8293C10.8068 37.8293 11.2734 37.8293 11.813 37.8293Z" fill="#26A65B"/>
<path d="M27.2415 41.0812C25.5498 41.052 24.0623 40.002 23.479 38.4124C22.881 36.8083 23.3477 35.0291 24.6456 33.8916C25.9144 32.7833 27.7373 32.5791 29.2248 33.3812C29.2977 33.4249 29.3852 33.4687 29.4581 33.5124C29.9102 33.8041 30.0706 34.2708 29.8373 34.6791C29.6186 35.0874 29.1373 35.2041 28.6561 34.9416C28.0727 34.6208 27.4894 34.4604 26.8331 34.5916C25.5206 34.8541 24.6602 36.1083 24.8935 37.4353C25.1123 38.7333 26.4102 39.652 27.7227 39.3895C28.0727 39.3166 28.4081 39.0833 28.6998 38.8499C29.1665 38.4853 29.6186 38.427 29.954 38.777C30.304 39.127 30.2602 39.6083 29.8519 40.0312C29.1373 40.7749 28.2623 41.1103 27.2415 41.0812Z" fill="#26A65B"/>
</g>
<defs>
<clipPath id="clip0_2_216">
<rect width="56" height="56" fill="white"/>
</clipPath>
</defs>
</svg>
