<svg width="52" height="52" viewBox="0 0 52 52" fill="none" xmlns="http://www.w3.org/2000/svg">
<path d="M24.3848 52C23.4352 51.8643 22.4719 51.7694 21.5359 51.6066C11.1982 49.8701 2.78706 41.7981 0.589302 31.5147C-1.83909 20.1596 3.38398 8.72312 13.5588 3.16088C18.402 0.515432 23.5708 -0.447784 29.0516 0.189838C29.73 0.271236 30.137 0.759628 30.0556 1.34298C29.9606 1.93991 29.4451 2.27907 28.7668 2.19767C16.6791 0.759628 5.28328 8.81808 2.63783 20.6887C0.100911 32.0709 5.93447 43.4803 16.6384 48.0657C28.4954 53.1531 42.5367 47.7673 47.7733 35.9645C51.4362 27.7161 50.6087 19.7526 45.6162 12.2368C45.5213 12.1012 45.4127 11.9655 45.2093 11.8434C45.2093 12.1283 45.2228 12.4267 45.2093 12.7116C45.1957 13.3493 44.8023 13.7834 44.2325 13.797C43.6627 13.8105 43.2014 13.3628 43.1879 12.7252C43.1743 11.4771 43.1743 10.2154 43.1879 8.96731C43.2014 8.32969 43.6084 7.9227 44.246 7.9227C45.4941 7.90913 46.7558 7.90913 48.0039 7.9227C48.6416 7.9227 49.0485 8.34326 49.0621 8.91305C49.0621 9.4964 48.6551 9.91696 48.0311 9.94409C47.5427 9.95766 47.0543 9.94409 46.4981 9.94409C46.6202 10.1205 46.688 10.2561 46.7694 10.3647C49.7947 14.421 51.5312 18.9793 51.9111 24.0396C51.9246 24.1888 51.9653 24.3381 51.9925 24.4737C51.9925 25.5183 51.9925 26.5765 51.9925 27.6211C51.9653 27.7568 51.9246 27.8789 51.9111 28.0146C51.7347 29.222 51.6262 30.4294 51.382 31.6232C49.3063 41.7031 40.6781 49.9515 30.5304 51.593C29.5672 51.7558 28.5904 51.8643 27.6272 52C26.5419 52 25.4565 52 24.3848 52Z" fill="#26A65B"/>
<path d="M25.9719 8.56022C22.8381 8.62805 19.9213 9.44204 17.2216 11.0157C17.0452 11.1243 16.8824 11.2328 16.6925 11.3278C16.1634 11.5855 15.6072 11.4092 15.3359 10.9343C15.0781 10.4731 15.1866 9.88973 15.675 9.60484C16.3398 9.19784 17.0181 8.80442 17.71 8.47882C28.8073 3.24219 41.8582 9.46917 44.8021 21.3805C47.4747 32.1929 40.4609 43.0596 29.4856 45.0675C18.8631 47.021 8.67475 39.8715 6.89755 29.2083C6.1107 24.4465 7.00609 19.9967 9.47517 15.859C9.7058 15.4655 9.9907 15.1806 10.4655 15.1806C11.2659 15.1671 11.7001 16.0082 11.3066 16.7543C10.7911 17.7583 10.2078 18.7486 9.80077 19.7932C5.92077 29.7917 12.1749 41.0518 22.7024 43.0461C32.1447 44.8368 41.1528 38.7591 43.0249 29.3168C44.9378 19.7118 38.2767 10.2425 28.5903 8.83155C27.7356 8.69589 26.8538 8.65519 25.9719 8.56022Z" fill="#26A65B"/>
<path d="M22.4993 25.7897C22.5535 25.559 22.5942 25.152 22.7299 24.7993C22.8791 24.4466 22.8248 24.2295 22.5535 23.9717C21.536 22.9814 20.5321 21.9639 19.5282 20.96C19.1755 20.5937 19.0534 20.1732 19.2976 19.7119C19.5146 19.2913 19.9081 19.0878 20.3558 19.2099C20.6135 19.2778 20.8713 19.4541 21.0748 19.6576C22.0516 20.6073 23.0283 21.5841 23.978 22.5608C24.2222 22.805 24.3985 22.9 24.7648 22.7508C25.5788 22.4116 26.4199 22.4252 27.2339 22.7508C27.5595 22.8864 27.7359 22.8186 27.9801 22.588C30.0829 20.4716 32.1857 18.3688 34.2885 16.266C34.4377 16.1168 34.5734 15.9676 34.7362 15.859C35.1296 15.5877 35.6587 15.642 35.9978 15.9676C36.337 16.2932 36.4048 16.8222 36.1335 17.2292C36.0114 17.4056 35.8486 17.5684 35.6994 17.7176C33.6237 19.8069 31.5345 21.8825 29.4453 23.9582C29.1604 24.2295 29.1061 24.4466 29.2553 24.8264C29.7709 26.1559 29.3774 27.6076 28.3328 28.5843C27.3153 29.5204 25.7959 29.7646 24.5478 29.1813C23.2183 28.5301 22.5535 27.4312 22.4993 25.7897ZM27.4646 25.9931C27.4646 25.1792 26.8269 24.5551 26.013 24.5551C25.199 24.5551 24.5613 25.1792 24.5613 25.9931C24.5613 26.8207 25.2125 27.4719 26.0401 27.4583C26.8405 27.4448 27.4646 26.7936 27.4646 25.9931Z" fill="#26A65B"/>
<path d="M39.7683 27.0243C39.5648 27.0243 39.3613 27.0379 39.1578 27.0243C38.6016 26.9836 38.2081 26.5902 38.181 26.0611C38.1674 25.532 38.5473 25.0707 39.09 25.03C39.5784 24.9893 40.0668 24.9893 40.5551 25.03C41.1114 25.0843 41.4641 25.532 41.4505 26.0746C41.437 26.6173 41.0435 26.9972 40.4737 27.0379C40.2431 27.0379 39.9989 27.0243 39.7683 27.0243Z" fill="#26A65B"/>
<path d="M24.9816 39.8038C24.9816 39.6003 24.968 39.3968 24.9816 39.1933C25.0087 38.6235 25.3886 38.2165 25.9177 38.1894C26.4604 38.1487 26.9352 38.5421 26.9894 39.1119C27.0301 39.5867 27.0301 40.0616 26.9894 40.5228C26.9488 41.1062 26.4875 41.4725 25.9313 41.4453C25.4022 41.4182 25.0223 41.0248 24.9816 40.455C24.968 40.2379 24.9816 40.0209 24.9816 39.8038Z" fill="#26A65B"/>
<path d="M27.0311 12.1555C27.0311 12.3725 27.0446 12.5896 27.0311 12.8067C27.0039 13.3764 26.6241 13.7699 26.095 13.8106C25.5659 13.8377 25.0911 13.485 25.0368 12.9288C24.9825 12.4268 24.9825 11.9113 25.0368 11.4093C25.0911 10.8531 25.5523 10.5139 26.095 10.5411C26.6241 10.5682 27.0039 10.9616 27.0311 11.5314C27.0311 11.7485 27.0311 11.952 27.0311 12.1555Z" fill="#26A65B"/>
<path d="M12.1755 24.9757C12.3926 24.9757 12.6096 24.9622 12.8267 24.9757C13.3829 25.0029 13.7899 25.3963 13.817 25.9254C13.8442 26.4273 13.505 26.9157 12.9759 26.9564C12.4468 27.0107 11.8906 27.0107 11.3615 26.9428C10.8324 26.8886 10.5204 26.4138 10.5475 25.8847C10.5747 25.3691 10.9681 24.9893 11.4972 24.9622C11.7278 24.9757 11.9584 24.9757 12.1755 24.9757Z" fill="#26A65B"/>
<path d="M34.0303 2.03484C34.0167 2.59106 33.569 3.03876 33.0264 3.02519C32.4837 3.02519 32.0225 2.55037 32.0225 2.00771C32.0225 1.45149 32.4973 0.976661 33.0671 1.00379C33.6233 1.03093 34.0439 1.47862 34.0303 2.03484Z" fill="#26A65B"/>
<path d="M14.0197 13.0102C14.0197 13.5664 13.572 14.0141 13.0158 14.0141C12.4731 14.0141 12.0119 13.5664 11.9983 13.0238C11.9848 12.4675 12.4731 11.9791 13.0294 11.9927C13.572 12.0063 14.0197 12.4675 14.0197 13.0102Z" fill="#26A65B"/>
</svg>
