<svg width="49" height="56" viewBox="0 0 49 56" fill="none" xmlns="http://www.w3.org/2000/svg">
<path d="M43.3646 55.8978C43.8021 55.6645 43.9625 55.3145 43.9479 54.8186C43.9187 53.9582 43.9479 53.1124 43.9333 52.252C43.9187 51.4353 44.1958 50.7645 44.8083 50.2249C45.6542 49.452 46.4708 48.6499 47.3312 47.877C48.25 47.0311 48.6875 45.9811 48.6875 44.7416C48.6875 43.5895 48.6875 42.452 48.6875 41.2999C48.6729 38.8499 47.0542 37.2312 44.6042 37.2312C44.3854 37.2312 44.1812 37.2312 43.8896 37.2312C43.8896 36.9541 43.8896 36.7353 43.8896 36.502C43.8896 27.8249 43.8896 19.1478 43.8896 10.4707C43.8896 10.2374 43.9042 9.98949 43.8458 9.77074C43.7583 9.33324 43.4375 9.14365 43.0146 9.15824C42.5771 9.1874 42.3 9.40615 42.2562 9.85824C42.2417 10.0624 42.2417 10.252 42.2417 10.4562C42.2417 19.1187 42.2417 27.7812 42.2417 36.4436C42.2417 36.677 42.2417 36.9103 42.2417 37.1874C41.7021 37.1874 41.1771 37.1874 40.6083 37.1874C40.6083 36.9832 40.6083 36.7937 40.6083 36.6041C40.6083 25.3457 40.6083 14.0728 40.6083 2.81449C40.6083 2.68324 40.6083 2.56657 40.6083 2.43532C40.6375 1.89574 40.9292 1.60407 41.4104 1.60407C41.8917 1.60407 42.2125 1.89574 42.2271 2.43532C42.2562 3.07699 42.2271 3.70407 42.2417 4.34574C42.2417 4.73949 42.2417 5.14782 42.2562 5.54157C42.2708 6.0374 42.5771 6.27074 43.0292 6.28532C43.4812 6.2999 43.8458 6.06657 43.8604 5.5999C43.875 4.33115 43.9187 3.04782 43.7875 1.79365C43.6562 0.656153 42.5333 -0.0584304 41.2646 -9.70291e-05C40.0396 0.0582363 39.1062 0.889486 38.9896 2.02699C38.9604 2.26032 38.9312 2.50824 38.975 2.74157C39.1354 3.70407 38.6979 4.34574 38.0271 5.00199C34.6146 8.26865 30.575 9.81449 25.8792 9.5374C23.3271 9.39157 20.775 9.07074 18.2229 8.79365C14.7083 8.41449 11.2083 8.3124 7.825 9.55199C4.86458 10.6312 2.45833 12.4832 0.343746 14.7874C0.0374985 15.1228 -0.0354233 15.502 0.241661 15.8666C0.533329 16.2603 0.912498 16.2457 1.36458 16.0853C2.41458 15.7207 3.47916 15.2687 4.57291 15.0791C6.81875 14.6999 8.93333 15.3416 10.975 16.2166C11.4271 16.4062 11.8646 16.6249 12.3167 16.8291C12.8708 17.077 13.2937 16.9749 13.5271 16.5228C13.7604 16.0562 13.6 15.6478 13.0458 15.3707C10.3625 14.0291 7.57708 13.0812 4.5 13.4166C4.45625 13.4166 4.4125 13.402 4.29583 13.2562C5.2 12.7312 6.06041 12.1478 6.99375 11.6812C9.67708 10.3395 12.55 9.9749 15.4958 10.2082C18.2812 10.427 21.0667 10.8062 23.8521 11.0687C27.6 11.4187 31.2896 11.1999 34.6875 9.3624C36 8.63324 37.2104 7.64157 38.4792 6.76657C38.6104 6.67907 38.7271 6.5624 38.9604 6.37282C38.9604 6.66449 38.9604 6.85407 38.9604 7.04365C38.9604 13.1541 38.9604 19.2645 38.975 25.3895C38.975 25.8416 38.8292 26.0603 38.4062 26.2207C35.8687 27.227 33.3458 27.0228 30.8375 26.1187C27.9354 25.0832 25.3833 23.3916 22.8458 21.6853C21.0229 20.4457 19.2146 19.2062 17.3917 17.9666C17.275 17.8791 17.1583 17.7916 17.0271 17.7332C16.5896 17.4853 16.1958 17.5728 15.9333 17.9666C15.6708 18.3603 15.7 18.8124 16.1083 19.0749C20.2792 21.802 24.1583 24.9666 28.7229 27.0374C30.9396 28.0436 33.2437 28.6999 35.6937 28.4957C36.7583 28.4082 37.7937 28.1312 38.9021 27.927C38.9167 27.9999 38.9458 28.1457 38.9458 28.3062C38.9458 30.1582 38.9458 32.0249 38.9604 33.877C38.9604 34.2416 38.8875 34.3728 38.4792 34.3874C36.0875 34.4749 34.5708 36.0207 34.5562 38.427C34.5417 42.2624 34.5562 46.1124 34.5417 49.9478C34.5417 50.3562 34.4542 50.7791 34.3083 51.1582C33.9 52.2811 33.4625 53.4041 33.025 54.5124C32.7479 55.227 32.8062 55.4311 33.4042 55.9124C36.7437 55.8978 40.0542 55.8978 43.3646 55.8978ZM36.2042 51.202C36.2042 50.7645 36.2042 50.3853 36.2042 50.0061C36.2042 46.2436 36.2042 42.4812 36.2042 38.7041C36.2042 38.4707 36.2042 38.2374 36.2187 37.9895C36.35 36.6187 37.5167 35.7728 38.9458 36.0645C38.9458 36.6332 38.9458 37.202 38.9458 37.7853C38.9604 38.5874 39.2229 38.8499 40.0396 38.8499C41.5854 38.8499 43.1312 38.8499 44.6771 38.8499C46.0917 38.8499 47.0104 39.7395 47.0396 41.1541C47.0542 42.3791 47.0396 43.5895 47.0396 44.8145C47.0396 45.5436 46.7771 46.1562 46.2229 46.652C45.5521 47.2645 44.8958 47.9062 44.225 48.5041C43.3937 49.2478 42.6062 50.0207 42.3729 51.1874C40.2875 51.202 38.2312 51.202 36.2042 51.202ZM34.9208 54.2353C35.0229 53.9291 35.1542 53.6811 35.2125 53.4332C35.3146 52.9666 35.5917 52.8353 36.0583 52.8499C37.925 52.8791 39.7917 52.8645 41.6729 52.8645C41.8625 52.8645 42.0521 52.8645 42.2708 52.8645C42.2708 53.3603 42.2708 53.7978 42.2708 54.2499C39.8208 54.2353 37.4146 54.2353 34.9208 54.2353Z" fill="#26A65B"/>
</svg>
